<?xml version="1.0" encoding="UTF-8" standalone="no"?>
<svg width="31px" height="31px" viewBox="0 0 31 31" version="1.1" xmlns="http://www.w3.org/2000/svg" xmlns:xlink="http://www.w3.org/1999/xlink">
    <!-- Generator: Sketch 39.1 (31720) - http://www.bohemiancoding.com/sketch -->
    <title>Fill 622</title>
    <desc>Created with Sketch.</desc>
    <defs></defs>
    <g id="Page-1" stroke="none" stroke-width="1" fill="none" fill-rule="evenodd">
        <path d="M20.4196592,23.7091837 C20.4196592,24.0459184 20.144149,24.3214286 19.8074143,24.3214286 L12.4604755,24.3214286 C12.1237408,24.3214286 11.8482306,24.0459184 11.8482306,23.7091837 L11.8482306,21.2602041 C11.8482306,20.9234694 12.1237408,20.6479592 12.4604755,20.6479592 L14.2972102,20.6479592 L14.2972102,15.75 L12.4604755,15.75 C12.1237408,15.75 11.8482306,15.4744898 11.8482306,15.1377551 L11.8482306,12.6887755 C11.8482306,12.3520408 12.1237408,12.0765306 12.4604755,12.0765306 L17.3584347,12.0765306 C17.6951694,12.0765306 17.9706796,12.3520408 17.9706796,12.6887755 L17.9706796,20.6479592 L19.8074143,20.6479592 C20.144149,20.6479592 20.4196592,20.9234694 20.4196592,21.2602041 L20.4196592,23.7091837 Z M14.2972102,7.79081633 C14.2972102,7.45408163 14.5727204,7.17857143 14.9094551,7.17857143 L17.3584347,7.17857143 C17.6951694,7.17857143 17.9706796,7.45408163 17.9706796,7.79081633 L17.9706796,10.2397959 C17.9706796,10.5765306 17.6951694,10.8520408 17.3584347,10.8520408 L14.9094551,10.8520408 C14.5727204,10.8520408 14.2972102,10.5765306 14.2972102,10.2397959 L14.2972102,7.79081633 Z M15.5217,0.75 C7.23802653,0.75 0.5217,7.46510204 0.5217,15.75 C0.5217,24.034898 7.23802653,30.75 15.5217,30.75 C23.8053735,30.75 30.5217,24.034898 30.5217,15.75 C30.5217,7.46510204 23.8053735,0.75 15.5217,0.75 L15.5217,0.75 Z" id="Fill-622" fill="#3498DB"></path>
    </g>
</svg>