<?xml version="1.0" encoding="UTF-8" standalone="no"?>
<svg width="18px" height="18px" viewBox="0 0 18 18" version="1.1" xmlns="http://www.w3.org/2000/svg" xmlns:xlink="http://www.w3.org/1999/xlink">
    <!-- Generator: Sketch 39.1 (31720) - http://www.bohemiancoding.com/sketch -->
    <title>blue-info-30x30</title>
    <desc>Created with Sketch.</desc>
    <defs></defs>
    <g id="Page-1" stroke="none" stroke-width="1" fill="none" fill-rule="evenodd">
        <g id="blue-info-30x30" fill="#3498DB">
            <g id="Page-1">
                <path d="M11.8565763,13.7666228 C11.8565763,13.9621462 11.6966026,14.1221198 11.5010793,14.1221198 L7.23511481,14.1221198 C7.03959143,14.1221198 6.87961777,13.9621462 6.87961777,13.7666228 L6.87961777,12.3446346 C6.87961777,12.1491113 7.03959143,11.9891376 7.23511481,11.9891376 L8.30160592,11.9891376 L8.30160592,9.14516129 L7.23511481,9.14516129 C7.03959143,9.14516129 6.87961777,8.98518763 6.87961777,8.78966425 L6.87961777,7.3676761 C6.87961777,7.17215272 7.03959143,7.01217906 7.23511481,7.01217906 L10.0790911,7.01217906 C10.2746145,7.01217906 10.4345882,7.17215272 10.4345882,7.3676761 L10.4345882,11.9891376 L11.5010793,11.9891376 C11.6966026,11.9891376 11.8565763,12.1491113 11.8565763,12.3446346 L11.8565763,13.7666228 L11.8565763,13.7666228 Z M8.30160592,4.5236998 C8.30160592,4.32817643 8.46157959,4.16820277 8.65710296,4.16820277 L10.0790911,4.16820277 C10.2746145,4.16820277 10.4345882,4.32817643 10.4345882,4.5236998 L10.4345882,5.94568794 C10.4345882,6.14121132 10.2746145,6.30118498 10.0790911,6.30118498 L8.65710296,6.30118498 C8.46157959,6.30118498 8.30160592,6.14121132 8.30160592,5.94568794 L8.30160592,4.5236998 L8.30160592,4.5236998 Z M9.0126,0.435483871 C4.20272508,0.435483871 0.302922581,4.33457538 0.302922581,9.14516129 C0.302922581,13.9557472 4.20272508,17.8548387 9.0126,17.8548387 C13.8224749,17.8548387 17.7222774,13.9557472 17.7222774,9.14516129 C17.7222774,4.33457538 13.8224749,0.435483871 9.0126,0.435483871 L9.0126,0.435483871 L9.0126,0.435483871 Z" id="Fill-622"></path>
            </g>
        </g>
    </g>
</svg>