<?xml version="1.0" encoding="UTF-8" standalone="no"?>
<svg width="35px" height="35px" viewBox="0 0 35 35" version="1.1" xmlns="http://www.w3.org/2000/svg" xmlns:xlink="http://www.w3.org/1999/xlink">
    <!-- Generator: Sketch 39.1 (31720) - http://www.bohemiancoding.com/sketch -->
    <title>Group</title>
    <desc>Created with Sketch.</desc>
    <defs></defs>
    <g id="Page-1" stroke="none" stroke-width="1" fill="none" fill-rule="evenodd">
        <g id="Group" fill="#D8D8D8">
            <rect id="Rectangle-2" transform="translate(7.432773, 7.461462) rotate(-45.000000) translate(-7.432773, -7.461462) " x="-0.869473658" y="5.7458915" width="16.6044926" height="3.43114067" rx="1"></rect>
            <rect id="Rectangle-2" transform="translate(10.019749, 10.048438) rotate(-45.000000) translate(-10.019749, -10.048438) " x="1.71750237" y="8.33286753" width="16.6044926" height="3.43114067" rx="1"></rect>
            <rect id="Rectangle-2" transform="translate(12.606725, 12.635414) rotate(-45.000000) translate(-12.606725, -12.635414) " x="4.3044784" y="10.9198436" width="16.6044926" height="3.43114067" rx="1"></rect>
            <rect id="Rectangle-2" transform="translate(22.351001, 22.379690) rotate(-45.000000) translate(-22.351001, -22.379690) " x="14.0487548" y="20.6641199" width="16.6044926" height="3.43114067" rx="1"></rect>
            <rect id="Rectangle-2" transform="translate(24.937977, 24.966666) rotate(-45.000000) translate(-24.937977, -24.966666) " x="16.6357308" y="23.251096" width="16.6044926" height="3.43114067" rx="1"></rect>
            <rect id="Rectangle-2" transform="translate(27.524953, 27.553642) rotate(-45.000000) translate(-27.524953, -27.553642) " x="19.2227068" y="25.838072" width="16.6044926" height="3.43114067" rx="1"></rect>
            <rect id="Rectangle-8" transform="translate(17.711766, 17.284937) rotate(-45.000000) translate(-17.711766, -17.284937) " x="15.7723784" y="12.2849369" width="3.87877552" height="10"></rect>
        </g>
    </g>
</svg>