<?xml version="1.0" encoding="UTF-8" standalone="no"?>
<svg width="31px" height="31px" viewBox="0 0 31 31" version="1.1" xmlns="http://www.w3.org/2000/svg" xmlns:xlink="http://www.w3.org/1999/xlink">
    <!-- Generator: Sketch 39.1 (31720) - http://www.bohemiancoding.com/sketch -->
    <title>Fill 624</title>
    <desc>Created with Sketch.</desc>
    <defs></defs>
    <g id="Page-1" stroke="none" stroke-width="1" fill="none" fill-rule="evenodd">
        <path d="M24.1667192,12.0607921 L13.744128,22.4821589 C13.5886217,22.6388895 13.3314854,22.6388895 13.1747548,22.4821589 L6.85165075,16.1578304 C6.69614451,16.0023242 6.69614451,15.7464123 6.85165075,15.5884572 L9.46464532,12.9766871 C9.62137601,12.8199564 9.87728785,12.8199564 10.0327941,12.9766871 L13.1772037,16.1198722 C13.3327099,16.2753784 13.5886217,16.2753784 13.7453524,16.1198722 L20.9647601,8.90291343 C21.1202663,8.74618274 21.3774026,8.74495828 21.5365823,8.90046451 L24.1642703,11.4938677 C24.3222255,11.649374 24.3222255,11.9040614 24.1667192,12.0607921 M26.1283018,5.14382565 C20.2692676,-0.715208551 10.7735915,-0.715208551 4.91455731,5.14382565 C-0.943252437,11.0016354 -0.943252437,20.498536 4.91455731,26.3563457 C10.7735915,32.2141555 20.2692676,32.2141555 26.1283018,26.3563457 C31.9848871,20.498536 31.9861116,11.0016354 26.1283018,5.14382565" id="Fill-624" fill="#5CB85C"></path>
    </g>
</svg>