<?xml version="1.0" encoding="UTF-8" standalone="no"?>
<svg width="41px" height="42px" viewBox="0 0 41 42" version="1.1" xmlns="http://www.w3.org/2000/svg" xmlns:xlink="http://www.w3.org/1999/xlink">
    <!-- Generator: Sketch 39.1 (31720) - http://www.bohemiancoding.com/sketch -->
    <title>Fill 624</title>
    <desc>Created with Sketch.</desc>
    <defs></defs>
    <g id="Page-1" stroke="none" stroke-width="1" fill="none" fill-rule="evenodd">
        <path d="M32.442651,16.0197268 L18.3721528,30.088572 C18.1622194,30.3001584 17.8150854,30.3001584 17.6034989,30.088572 L9.06730851,21.5507285 C8.85737509,21.3407951 8.85737509,20.9953141 9.06730851,20.7820747 L12.5948512,17.256185 C12.8064376,17.0445986 13.1519186,17.0445986 13.361852,17.256185 L17.606805,21.4994849 C17.8167384,21.7094184 18.1622194,21.7094184 18.3738058,21.4994849 L28.1200061,11.7565906 C28.3299396,11.5450042 28.6770736,11.5433512 28.891966,11.7532846 L32.4393449,15.254379 C32.6525844,15.4643124 32.6525844,15.8081403 32.442651,16.0197268 M35.0907875,6.68182213 C27.1810913,-1.22787404 14.3619285,-1.22787404 6.45223237,6.68182213 C-1.45581079,14.5898653 -1.45581079,27.4106811 6.45223237,35.3187242 C14.3619285,43.2267674 27.1810913,43.2267674 35.0907875,35.3187242 C42.9971776,27.4106811 42.9988307,14.5898653 35.0907875,6.68182213" id="Fill-624" fill="#5CB85C"></path>
    </g>
</svg>