<?xml version="1.0" encoding="UTF-8" standalone="no"?>
<svg width="18px" height="18px" viewBox="0 0 18 18" version="1.1" xmlns="http://www.w3.org/2000/svg" xmlns:xlink="http://www.w3.org/1999/xlink">
    <!-- Generator: Sketch 39.1 (31720) - http://www.bohemiancoding.com/sketch -->
    <title>green-checkmark-30x30</title>
    <desc>Created with Sketch.</desc>
    <defs></defs>
    <g id="Page-1" stroke="none" stroke-width="1" fill="none" fill-rule="evenodd">
        <g id="green-checkmark-30x30" fill="#5CB85C">
            <g id="Page-1">
                <path d="M14.0322886,7.00304057 L7.98046142,13.0541568 C7.89016744,13.1451616 7.74086249,13.1451616 7.64985763,13.0541568 L3.97837785,9.38196604 C3.88808391,9.29167212 3.88808391,9.14307811 3.97837785,9.05136225 L5.49560051,7.53485057 C5.58660543,7.44384565 5.7351994,7.44384565 5.82549335,7.53485057 L7.65127957,9.35992579 C7.74157349,9.45021972 7.89016744,9.45021972 7.98117236,9.35992579 L12.1730865,5.1694336 C12.2633804,5.07842869 12.4126854,5.07771771 12.5051123,5.16801165 L14.0308666,6.67385866 C14.1225825,6.76415265 14.1225825,6.91203565 14.0322886,7.00304057 M15.171272,2.98673747 C11.7692522,-0.415282384 6.25563377,-0.415282384 2.85361392,2.98673747 C-0.547694963,6.38804636 -0.547694963,11.9023757 2.85361392,15.3036846 C6.25563377,18.7049935 11.7692522,18.7049935 15.171272,15.3036846 C18.5718699,11.9023757 18.5725809,6.38804636 15.171272,2.98673747" id="Fill-624"></path>
            </g>
        </g>
    </g>
</svg>