<?xml version="1.0" encoding="UTF-8" standalone="no"?>
<svg width="90px" height="90px" viewBox="0 0 90 90" version="1.1" xmlns="http://www.w3.org/2000/svg" xmlns:xlink="http://www.w3.org/1999/xlink">
    <!-- Generator: Sketch 3.8.3 (29802) - http://www.bohemiancoding.com/sketch -->
    <title>Group 2</title>
    <desc>Created with Sketch.</desc>
    <defs></defs>
    <g id="Page-1" stroke="none" stroke-width="1" fill="none" fill-rule="evenodd">
        <g id="Group-2">
            <rect id="Rectangle-1" fill="#3F4952" x="0" y="0" width="90" height="90" rx="12"></rect>
            <g id="Group" transform="translate(10.000000, 10.000000)" fill="#D8D8D8">
                <rect id="Rectangle-2" transform="translate(14.865545, 14.922924) rotate(-45.000000) translate(-14.865545, -14.922924) " x="-1.73894732" y="11.491783" width="33.2089851" height="6.86228133" rx="1"></rect>
                <rect id="Rectangle-2" transform="translate(20.039497, 20.096876) rotate(-45.000000) translate(-20.039497, -20.096876) " x="3.43500474" y="16.6657351" width="33.2089851" height="6.86228133" rx="1"></rect>
                <rect id="Rectangle-2" transform="translate(25.213449, 25.270828) rotate(-45.000000) translate(-25.213449, -25.270828) " x="8.6089568" y="21.8396871" width="33.2089851" height="6.86228133" rx="1"></rect>
                <rect id="Rectangle-2" transform="translate(44.702002, 44.759381) rotate(-45.000000) translate(-44.702002, -44.759381) " x="28.0975095" y="41.3282399" width="33.2089851" height="6.86228133" rx="1"></rect>
                <rect id="Rectangle-2" transform="translate(49.875954, 49.933333) rotate(-45.000000) translate(-49.875954, -49.933333) " x="33.2714616" y="46.5021919" width="33.2089851" height="6.86228133" rx="1"></rect>
                <rect id="Rectangle-2" transform="translate(55.049906, 55.107285) rotate(-45.000000) translate(-55.049906, -55.107285) " x="38.4454137" y="51.676144" width="33.2089851" height="6.86228133" rx="1"></rect>
                <rect id="Rectangle-8" transform="translate(35.423532, 34.569874) rotate(-45.000000) translate(-35.423532, -34.569874) " x="31.5447569" y="24.5698738" width="7.75755105" height="20"></rect>
            </g>
        </g>
    </g>
</svg>