<?xml version="1.0" encoding="UTF-8" standalone="no"?>
<svg width="30px" height="30px" viewBox="0 0 30 30" version="1.1" xmlns="http://www.w3.org/2000/svg" xmlns:xlink="http://www.w3.org/1999/xlink">
    <!-- Generator: Sketch 39.1 (31720) - http://www.bohemiancoding.com/sketch -->
    <title>Group 2</title>
    <desc>Created with Sketch.</desc>
    <defs></defs>
    <g id="Page-1" stroke="none" stroke-width="1" fill="none" fill-rule="evenodd">
        <g id="Group-2">
            <rect id="Rectangle-1" fill="#3F4952" x="0" y="0" width="30" height="30" rx="3"></rect>
            <g id="Group" transform="translate(3.333333, 3.333333)" fill="#D8D8D8">
                <rect id="Rectangle-2" transform="translate(4.955182, 4.974308) rotate(-45.000000) translate(-4.955182, -4.974308) " x="-0.579649105" y="3.83059433" width="11.0696617" height="2.28742711" rx="1"></rect>
                <rect id="Rectangle-2" transform="translate(6.679832, 6.698959) rotate(-45.000000) translate(-6.679832, -6.698959) " x="1.14500158" y="5.55524502" width="11.0696617" height="2.28742711" rx="1"></rect>
                <rect id="Rectangle-2" transform="translate(8.404483, 8.423609) rotate(-45.000000) translate(-8.404483, -8.423609) " x="2.86965227" y="7.2798957" width="11.0696617" height="2.28742711" rx="1"></rect>
                <rect id="Rectangle-2" transform="translate(14.900667, 14.919794) rotate(-45.000000) translate(-14.900667, -14.919794) " x="9.36583652" y="13.77608" width="11.0696617" height="2.28742711" rx="1"></rect>
                <rect id="Rectangle-2" transform="translate(16.625318, 16.644444) rotate(-45.000000) translate(-16.625318, -16.644444) " x="11.0904872" y="15.5007306" width="11.0696617" height="2.28742711" rx="1"></rect>
                <rect id="Rectangle-2" transform="translate(18.349969, 18.369095) rotate(-45.000000) translate(-18.349969, -18.369095) " x="12.8151379" y="17.2253813" width="11.0696617" height="2.28742711" rx="1"></rect>
                <rect id="Rectangle-8" transform="translate(11.807844, 11.523291) rotate(-45.000000) translate(-11.807844, -11.523291) " x="10.514919" y="8.18995795" width="2.58585035" height="6.66666667"></rect>
            </g>
        </g>
    </g>
</svg>