<?xml version="1.0" encoding="UTF-8"?>
<svg width="127px" height="128px" viewBox="0 0 127 128" version="1.1" xmlns="http://www.w3.org/2000/svg" xmlns:xlink="http://www.w3.org/1999/xlink">
    <!-- Generator: Sketch 42 (36781) - http://www.bohemiancoding.com/sketch -->
    <title>Group</title>
    <desc>Created with Sketch.</desc>
    <defs></defs>
    <g id="Page-1" stroke="none" stroke-width="1" fill="none" fill-rule="evenodd">
        <g id="Group" transform="translate(-1.000000, -1.000000)" fill="#D8D8D8">
            <rect id="Rectangle-2" transform="translate(27.583845, 27.690314) rotate(-45.000000) translate(-27.583845, -27.690314) " x="-3.22671335" y="21.3236418" width="61.6211169" height="12.7333442" rx="1"></rect>
            <rect id="Rectangle-2" transform="translate(37.184401, 37.290869) rotate(-45.000000) translate(-37.184401, -37.290869) " x="6.37384213" y="30.9241973" width="61.6211169" height="12.7333442" rx="1"></rect>
            <rect id="Rectangle-2" transform="translate(46.784956, 46.891425) rotate(-45.000000) translate(-46.784956, -46.891425) " x="15.9743976" y="40.5247528" width="61.6211169" height="12.7333442" rx="1"></rect>
            <rect id="Rectangle-2" transform="translate(82.947048, 83.053517) rotate(-45.000000) translate(-82.947048, -83.053517) " x="52.1364899" y="76.6868451" width="61.6211169" height="12.7333442" rx="1"></rect>
            <rect id="Rectangle-2" transform="translate(92.547604, 92.654073) rotate(-45.000000) translate(-92.547604, -92.654073) " x="61.7370454" y="86.2874006" width="61.6211169" height="12.7333442" rx="1"></rect>
            <rect id="Rectangle-2" transform="translate(102.148159, 102.254628) rotate(-45.000000) translate(-102.148159, -102.254628) " x="71.3376009" y="95.887956" width="61.6211169" height="12.7333442" rx="1"></rect>
            <rect id="Rectangle-8" transform="translate(65.730332, 64.146321) rotate(-45.000000) translate(-65.730332, -64.146321) " x="58.5330488" y="45.5907659" width="14.3945669" height="37.1111111"></rect>
        </g>
    </g>
</svg>