<?xml version="1.0" encoding="UTF-8"?>
<svg width="88px" height="88px" viewBox="0 0 88 88" version="1.1" xmlns="http://www.w3.org/2000/svg" xmlns:xlink="http://www.w3.org/1999/xlink">
    <!-- Generator: Sketch 42 (36781) - http://www.bohemiancoding.com/sketch -->
    <title>Group</title>
    <desc>Created with Sketch.</desc>
    <defs></defs>
    <g id="Page-1" stroke="none" stroke-width="1" fill="none" fill-rule="evenodd">
        <g id="Group" transform="translate(-1.000000, -1.000000)" fill="#D8D8D8">
            <rect id="Rectangle-2" transform="translate(19.112844, 19.186616) rotate(-45.000000) translate(-19.112844, -19.186616) " x="-2.23578941" y="14.7751496" width="42.6972666" height="8.82293314" rx="1"></rect>
            <rect id="Rectangle-2" transform="translate(25.765068, 25.838840) rotate(-45.000000) translate(-25.765068, -25.838840) " x="4.41643467" y="21.4273736" width="42.6972666" height="8.82293314" rx="1"></rect>
            <rect id="Rectangle-2" transform="translate(32.417292, 32.491064) rotate(-45.000000) translate(-32.417292, -32.491064) " x="11.0686587" y="28.0795977" width="42.6972666" height="8.82293314" rx="1"></rect>
            <rect id="Rectangle-2" transform="translate(57.474003, 57.547775) rotate(-45.000000) translate(-57.474003, -57.547775) " x="36.1253694" y="53.1363084" width="42.6972666" height="8.82293314" rx="1"></rect>
            <rect id="Rectangle-2" transform="translate(64.126227, 64.199999) rotate(-45.000000) translate(-64.126227, -64.199999) " x="42.7775935" y="59.7885325" width="42.6972666" height="8.82293314" rx="1"></rect>
            <rect id="Rectangle-2" transform="translate(70.778451, 70.852223) rotate(-45.000000) translate(-70.778451, -70.852223) " x="49.4298176" y="66.4407565" width="42.6972666" height="8.82293314" rx="1"></rect>
            <rect id="Rectangle-8" transform="translate(45.544542, 44.446981) rotate(-45.000000) translate(-45.544542, -44.446981) " x="40.5575445" y="31.5898378" width="9.97399421" height="25.7142857"></rect>
        </g>
    </g>
</svg>