<?xml version="1.0" encoding="UTF-8"?>
<svg width="73px" height="73px" viewBox="0 0 73 73" version="1.1" xmlns="http://www.w3.org/2000/svg" xmlns:xlink="http://www.w3.org/1999/xlink">
    <!-- Generator: Sketch 42 (36781) - http://www.bohemiancoding.com/sketch -->
    <title>Group</title>
    <desc>Created with Sketch.</desc>
    <defs></defs>
    <g id="Page-1" stroke="none" stroke-width="1" fill="none" fill-rule="evenodd">
        <g id="Group" transform="translate(-1.000000, -1.000000)" fill="#D8D8D8">
            <rect id="Rectangle-2" transform="translate(15.927370, 15.988847) rotate(-45.000000) translate(-15.927370, -15.988847) " x="-1.86315784" y="12.3126246" width="35.5810555" height="7.35244428" rx="1"></rect>
            <rect id="Rectangle-2" transform="translate(21.470890, 21.532367) rotate(-45.000000) translate(-21.470890, -21.532367) " x="3.68036222" y="17.8561447" width="35.5810555" height="7.35244428" rx="1"></rect>
            <rect id="Rectangle-2" transform="translate(27.014410, 27.075887) rotate(-45.000000) translate(-27.014410, -27.075887) " x="9.22388228" y="23.3996648" width="35.5810555" height="7.35244428" rx="1"></rect>
            <rect id="Rectangle-2" transform="translate(47.895002, 47.956479) rotate(-45.000000) translate(-47.895002, -47.956479) " x="30.1044745" y="44.280257" width="35.5810555" height="7.35244428" rx="1"></rect>
            <rect id="Rectangle-2" transform="translate(53.438522, 53.499999) rotate(-45.000000) translate(-53.438522, -53.499999) " x="35.6479946" y="49.8237771" width="35.5810555" height="7.35244428" rx="1"></rect>
            <rect id="Rectangle-2" transform="translate(58.982042, 59.043519) rotate(-45.000000) translate(-58.982042, -59.043519) " x="41.1915146" y="55.3672971" width="35.5810555" height="7.35244428" rx="1"></rect>
            <rect id="Rectangle-8" transform="translate(37.953785, 37.039151) rotate(-45.000000) translate(-37.953785, -37.039151) " x="33.7979538" y="26.3248648" width="8.31166184" height="21.4285714"></rect>
        </g>
    </g>
</svg>