<?xml version="1.0" encoding="UTF-8"?>
<svg width="100px" height="97px" viewBox="0 0 100 97" version="1.1" xmlns="http://www.w3.org/2000/svg" xmlns:xlink="http://www.w3.org/1999/xlink">
    <!-- Generator: Sketch 43.2 (39069) - http://www.bohemiancoding.com/sketch -->
    <title>Fill 890</title>
    <desc>Created with Sketch.</desc>
    <defs></defs>
    <g id="Page-1" stroke="none" stroke-width="1" fill="none" fill-rule="evenodd">
        <g id="Group" transform="translate(-113.000000, -66.000000)" fill="#EBEDF4">
            <path d="M203.381001,85.3107663 C208.692328,85.3107663 212.996002,81.0147842 212.996002,75.6957662 C212.996002,70.3767481 208.692328,66.080766 203.381001,66.080766 C198.069675,66.080766 193.766001,70.3767481 193.766001,75.6957662 C193.766001,78.0533642 194.646735,80.1802022 196.050525,81.8532123 L183.277959,101.210131 C182.339535,100.902451 181.347267,100.694767 180.305001,100.694767 C174.993675,100.694767 170.690001,104.990749 170.690001,110.309767 C170.690001,110.713597 170.763075,111.098197 170.809227,111.490489 L152.909943,119.401711 C151.148475,117.382561 148.583193,116.078767 145.691001,116.078767 C140.379674,116.078767 136.076,120.374749 136.076,125.693767 C136.076,127.516771 136.610594,129.197473 137.487482,130.647415 L120.692,150.050485 L120.692,66 L116.846,66 L113,66 L113,162.150002 L116.846,162.150002 L209.150002,162.150002 L209.150002,158.304001 L209.150002,154.458001 L124.507232,154.458001 L141.802694,134.474185 C142.994954,135.004933 144.30644,135.308767 145.691001,135.308767 C151.002327,135.308767 155.306001,131.012785 155.306001,125.693767 C155.306001,125.351473 155.236773,125.028409 155.206005,124.693807 L173.197593,116.740279 C174.955215,118.682509 177.478191,119.924767 180.305001,119.924767 C185.616327,119.924767 189.920001,115.628785 189.920001,110.309767 C189.920001,108.144469 189.185415,106.171471 187.977771,104.567689 L200.915715,84.9530883 C201.704145,85.1646183 202.523343,85.3107663 203.381001,85.3107663" id="Fill-890"></path>
        </g>
    </g>
</svg>