<?xml version="1.0" encoding="UTF-8" standalone="no"?>
<svg width="30px" height="30px" viewBox="0 0 30 30" version="1.1" xmlns="http://www.w3.org/2000/svg" xmlns:xlink="http://www.w3.org/1999/xlink">
    <!-- Generator: Sketch 39.1 (31720) - http://www.bohemiancoding.com/sketch -->
    <title>Fill 623</title>
    <desc>Created with Sketch.</desc>
    <defs></defs>
    <g id="Page-1" stroke="none" stroke-width="1" fill="none" fill-rule="evenodd">
        <path d="M18.4897959,14.7942857 C17.3057143,15.5669388 16.9518367,16.2330612 16.9126531,17.762449 C16.9089796,17.9302041 16.7730612,18.0612245 16.6065306,18.0612245 L13.4693878,18.0612245 C13.3861224,18.0612245 13.1632653,17.8383673 13.1632653,17.755102 L13.1632653,16.5061224 C13.1632653,15.1971429 13.8697959,14.0461224 15.3257143,12.9832653 C15.4395918,12.904898 16.5293878,12.1922449 16.5293878,11.2089796 C16.5293878,10.3934694 15.9159184,9.82408163 15.0379592,9.82408163 C13.7853061,9.82408163 13.0873469,10.4522449 13.02,11.6510204 C13.0102041,11.8114286 12.8767347,11.9387755 12.7138776,11.9387755 L12.5510204,11.9387755 L9.41632653,11.9387755 C9.33183673,11.9387755 9.25102041,11.9044898 9.19346939,11.8432653 C9.13591837,11.7832653 9.10530612,11.7012245 9.11020408,11.6167347 C9.28163265,8.29102041 11.4416327,6.3844898 15.0416327,6.3844898 C17.7697959,6.3844898 20.7085714,7.86489796 20.7085714,11.1159184 C20.7085714,13.2942857 20.2114286,13.7057143 18.4897959,14.7942857 L18.4897959,14.7942857 Z M15,0 C6.71632653,0 0,6.71510204 0,15 C0,23.284898 6.71632653,30 15,30 C23.2836735,30 30,23.284898 30,15 C30,6.71510204 23.2836735,0 15,0 L15,0 Z M17.5065306,24.1836735 C17.5065306,24.5204082 17.2322449,24.7959184 16.8942857,24.7959184 L13.1632653,24.7959184 C12.8265306,24.7959184 12.5510204,24.5204082 12.5510204,24.1836735 L12.5510204,20.5102041 C12.5510204,20.1734694 12.8265306,19.8979592 13.1632653,19.8979592 L16.8942857,19.8979592 C17.2322449,19.8979592 17.5065306,20.1734694 17.5065306,20.5102041 L17.5065306,24.1836735 Z" id="Fill-623" fill="#3F4952"></path>
    </g>
</svg>