<?xml version="1.0" encoding="UTF-8"?>
<svg width="25px" height="23px" viewBox="0 0 25 23" version="1.1" xmlns="http://www.w3.org/2000/svg" xmlns:xlink="http://www.w3.org/1999/xlink">
    <!-- Generator: Sketch 43.2 (39069) - http://www.bohemiancoding.com/sketch -->
    <title>riker-semi-black-reload-charts</title>
    <desc>Created with Sketch.</desc>
    <defs></defs>
    <g id="Page-1" stroke="none" stroke-width="1" fill="none" fill-rule="evenodd">
        <g id="riker-semi-black-reload-charts" fill="#9FA4A8">
            <path d="M24.9224286,10.6414355 L21.2828709,15.9612198 C21.1288502,16.1675142 20.8768162,16.1675142 20.7218619,15.9612198 L17.0823043,10.6414355 C16.9282835,10.435141 17.0113614,10.2680518 17.2689962,10.2680518 L19.5746405,10.2680518 C19.3982167,6.24204202 15.6662466,2.80037776 11.201511,2.80037776 C6.56875276,2.80037776 2.80037776,6.56875276 2.80037776,11.201511 C2.80037776,17.2307243 8.27604973,19.5793078 10.7497167,19.5793078 C13.2233838,19.5793078 14.7710592,19.0565706 16.3392707,17.8393398 L16.3430046,17.8430736 C16.6827838,17.5677031 17.2792642,17.0421656 17.5116956,16.8274699 C17.7926668,16.5661013 18.3098032,16.6575804 18.6598504,17.0346979 L19.2964697,17.7170566 C19.6465169,18.0923072 19.701591,18.6141109 19.4196863,18.876413 C19.2367283,19.0463026 19.1153786,19.197523 18.3284724,19.8285414 C16.5689017,21.1596543 14.3127307,22.3647502 10.6563708,22.3647502 C7.00094439,22.3647502 0,18.8260062 0,11.201511 C0,5.02387769 5.02481115,0 11.201511,0 C17.1859183,0 22.1985945,4.87079038 22.3768852,10.2017762 L22.380619,10.2680518 L24.7366702,10.2680518 C24.992438,10.2680518 25.0773828,10.4360744 24.9224286,10.6414355"></path>
        </g>
    </g>
</svg>