<?xml version="1.0" encoding="UTF-8"?>
<svg width="25px" height="23px" viewBox="0 0 25 23" version="1.1" xmlns="http://www.w3.org/2000/svg" xmlns:xlink="http://www.w3.org/1999/xlink">
    <!-- Generator: Sketch 43.2 (39069) - http://www.bohemiancoding.com/sketch -->
    <title>riker-white-reload-charts</title>
    <desc>Created with Sketch.</desc>
    <defs></defs>
    <g id="Page-1" stroke="none" stroke-width="1" fill="none" fill-rule="evenodd">
        <g id="riker-white-reload-charts" fill="#FFFFFF">
            <path d="M24.9269864,10.6433816 L21.2867632,15.9641388 C21.1327142,16.170471 20.8806341,16.170471 20.7256516,15.9641388 L17.0854283,10.6433816 C16.9313794,10.4370494 17.0144725,10.2699296 17.2721543,10.2699296 L19.5782203,10.2699296 C19.4017643,6.24318357 15.6691117,2.80088989 11.2035596,2.80088989 C6.56995406,2.80088989 2.80088989,6.56995406 2.80088989,11.2035596 C2.80088989,17.2338755 8.27756326,19.5828885 10.7516827,19.5828885 C13.2258021,19.5828885 14.7737606,19.0600557 16.3422589,17.8426022 L16.3459934,17.8463368 C16.6858347,17.5709159 17.2824243,17.0452823 17.5148981,16.8305474 C17.7959207,16.569131 18.3131517,16.6606267 18.663263,17.0378132 L19.2999986,17.7202967 C19.6501099,18.095616 19.705194,18.6175151 19.4232378,18.8798651 C19.2402463,19.0497858 19.1188744,19.2010338 18.3318243,19.8321677 C16.5719319,21.163524 14.3153482,22.3688403 10.6583197,22.3688403 C7.00222473,22.3688403 0,18.8294491 0,11.2035596 C0,5.02479647 5.0257301,0 11.2035596,0 C17.1890613,0 22.2026542,4.87168115 22.3809775,10.2036419 L22.384712,10.2699296 L24.741194,10.2699296 C24.9970087,10.2699296 25.081969,10.437983 24.9269864,10.6433816"></path>
        </g>
    </g>
</svg>