<?xml version="1.0" encoding="UTF-8" standalone="no"?>
<svg width="31px" height="31px" viewBox="0 0 31 31" version="1.1" xmlns="http://www.w3.org/2000/svg" xmlns:xlink="http://www.w3.org/1999/xlink">
    <!-- Generator: Sketch 39.1 (31720) - http://www.bohemiancoding.com/sketch -->
    <title>Fill 621</title>
    <desc>Created with Sketch.</desc>
    <defs></defs>
    <g id="Page-1" stroke="none" stroke-width="1" fill="none" fill-rule="evenodd">
        <path d="M17.9706796,11.4642857 C17.9706796,11.8010204 17.916802,12.3471429 17.8506796,12.6765306 L16.7486388,18.5173469 C16.6837408,18.8467347 16.3543531,19.4234694 16.0163939,19.4234694 L15.0551694,19.4234694 C14.7184347,19.4234694 14.3878224,18.8467347 14.3204755,18.5173469 L13.1951694,12.8295918 C13.1278224,12.5002041 13.0727204,11.8010204 13.0727204,11.4642857 L13.0727204,6.56632653 C13.0727204,6.22959184 13.3482306,5.95408163 13.6849653,5.95408163 L17.3584347,5.95408163 C17.6951694,5.95408163 17.9706796,6.22959184 17.9706796,6.56632653 L17.9706796,11.4642857 Z M17.9706796,24.9336735 C17.9706796,25.2704082 17.6951694,25.5459184 17.3584347,25.5459184 L13.6849653,25.5459184 C13.3482306,25.5459184 13.0727204,25.2704082 13.0727204,24.9336735 L13.0727204,21.2602041 C13.0727204,20.9234694 13.3482306,20.6479592 13.6849653,20.6479592 L17.3584347,20.6479592 C17.6951694,20.6479592 17.9706796,20.9234694 17.9706796,21.2602041 L17.9706796,24.9336735 Z M15.5217,0.75 C7.23802653,0.75 0.5217,7.46510204 0.5217,15.75 C0.5217,24.034898 7.23802653,30.75 15.5217,30.75 C23.8053735,30.75 30.5217,24.034898 30.5217,15.75 C30.5217,7.46510204 23.8053735,0.75 15.5217,0.75 L15.5217,0.75 Z" id="Fill-621" fill="#E7D95C"></path>
    </g>
</svg>