<?xml version="1.0" encoding="UTF-8" standalone="no"?>
<svg width="18px" height="18px" viewBox="0 0 18 18" version="1.1" xmlns="http://www.w3.org/2000/svg" xmlns:xlink="http://www.w3.org/1999/xlink">
    <!-- Generator: Sketch 39.1 (31720) - http://www.bohemiancoding.com/sketch -->
    <title>yellow-exclamation-30x30</title>
    <desc>Created with Sketch.</desc>
    <defs></defs>
    <g id="Page-1" stroke="none" stroke-width="1" fill="none" fill-rule="evenodd">
        <g id="yellow-exclamation-30x30" fill="#E7D95C">
            <g id="Page-1">
                <path d="M10.4345882,6.65668202 C10.4345882,6.85220539 10.4033044,7.16930878 10.3649107,7.36056615 L9.72501608,10.7520079 C9.68733337,10.9432653 9.49607599,11.2781435 9.29984162,11.2781435 L8.74171126,11.2781435 C8.54618789,11.2781435 8.35421946,10.9432653 8.31511481,10.7520079 L7.66171126,7.4494404 C7.62260655,7.25818303 7.59061185,6.85220539 7.59061185,6.65668202 L7.59061185,3.81270573 C7.59061185,3.61718236 7.75058551,3.45720869 7.94610888,3.45720869 L10.0790911,3.45720869 C10.2746145,3.45720869 10.4345882,3.61718236 10.4345882,3.81270573 L10.4345882,6.65668202 L10.4345882,6.65668202 Z M10.4345882,14.4776169 C10.4345882,14.6731402 10.2746145,14.8331139 10.0790911,14.8331139 L7.94610888,14.8331139 C7.75058551,14.8331139 7.59061185,14.6731402 7.59061185,14.4776169 L7.59061185,12.3446346 C7.59061185,12.1491113 7.75058551,11.9891376 7.94610888,11.9891376 L10.0790911,11.9891376 C10.2746145,11.9891376 10.4345882,12.1491113 10.4345882,12.3446346 L10.4345882,14.4776169 L10.4345882,14.4776169 Z M9.0126,0.435483871 C4.20272508,0.435483871 0.302922581,4.33457538 0.302922581,9.14516129 C0.302922581,13.9557472 4.20272508,17.8548387 9.0126,17.8548387 C13.8224749,17.8548387 17.7222774,13.9557472 17.7222774,9.14516129 C17.7222774,4.33457538 13.8224749,0.435483871 9.0126,0.435483871 L9.0126,0.435483871 L9.0126,0.435483871 Z" id="Fill-621"></path>
            </g>
        </g>
    </g>
</svg>