<?xml version="1.0" encoding="UTF-8"?>
<svg width="78px" height="70px" viewBox="0 0 78 70" version="1.1" xmlns="http://www.w3.org/2000/svg" xmlns:xlink="http://www.w3.org/1999/xlink">
    <!-- Generator: Sketch 43.2 (39069) - http://www.bohemiancoding.com/sketch -->
    <title>riker-semi-blue-reload-charts</title>
    <desc>Created with Sketch.</desc>
    <defs></defs>
    <g id="Page-1" stroke="none" stroke-width="1" fill="none" fill-rule="evenodd">
        <g id="riker-semi-blue-reload-charts" fill="#337AB7">
            <path d="M77.7579771,33.2012787 L66.4025574,49.7990056 C65.9220125,50.4426444 65.1356665,50.4426444 64.6522092,49.7990056 L53.2967895,33.2012787 C52.8162446,32.5576399 53.0754476,32.0363215 53.879268,32.0363215 L61.0728784,32.0363215 C60.5224362,19.4751711 48.8786895,8.7371786 34.9487144,8.7371786 C20.4945086,8.7371786 8.7371786,20.4945086 8.7371786,34.9487144 C8.7371786,53.7598599 25.8212752,61.0874404 33.5391163,61.0874404 C41.2569573,61.0874404 46.0857047,59.4565004 50.9785247,55.6587401 L50.9901743,55.6703896 C52.0502853,54.8112337 53.9113044,53.1715566 54.6364902,52.5017062 C55.5131204,51.6862362 57.1265861,51.9716507 58.2187334,53.1482574 L60.2049853,55.2772166 C61.2971327,56.4479985 61.4689638,58.0760262 60.5894212,58.8944085 C60.0185922,59.424464 59.6399811,59.8962717 57.1848339,61.8650493 C51.6949734,66.0181215 44.6557198,69.7780207 33.247877,69.7780207 C21.8429465,69.7780207 0,58.7371393 0,34.9487144 C0,15.6744984 15.6774108,0 34.9487144,0 C53.6200651,0 69.2596148,15.196866 69.8158818,31.8295416 L69.8275314,32.0363215 L77.178411,32.0363215 C77.9764066,32.0363215 78.2414344,32.5605522 77.7579771,33.2012787"></path>
        </g>
    </g>
</svg>