<?xml version="1.0" encoding="UTF-8"?>
<svg width="25px" height="25px" viewBox="0 0 25 25" version="1.1" xmlns="http://www.w3.org/2000/svg" xmlns:xlink="http://www.w3.org/1999/xlink">
    <!-- Generator: Sketch 43.2 (39069) - http://www.bohemiancoding.com/sketch -->
    <title>riker-semi-black-settings</title>
    <desc>Created with Sketch.</desc>
    <defs></defs>
    <g id="Page-1" stroke="none" stroke-width="1" fill="none" fill-rule="evenodd">
        <g id="riker-semi-black-settings" fill-rule="nonzero" fill="#9FA4A8">
            <path d="M12.5,16.8726991 C10.0851322,16.8726991 8.12730087,14.9148678 8.12730087,12.5 C8.12730087,10.086178 10.0851322,8.12834672 12.5,8.12834672 C14.9148678,8.12834672 16.8726991,10.086178 16.8726991,12.5 C16.8726991,14.9148678 14.9148678,16.8726991 12.5,16.8726991 L12.5,16.8726991 Z M24.8849565,14.1095633 C24.9529367,13.5824548 25,13.0480254 25,12.5 C25,11.9530204 24.9529367,11.418591 24.8849565,10.8904367 L21.5832078,10.0642152 C21.3677627,9.26204819 21.0529618,8.50171519 20.6461262,7.7978581 L22.3958333,4.88307396 C21.7369478,4.02861446 20.9724314,3.26305221 20.116926,2.60416667 L17.2021419,4.35387383 C16.4982848,3.948084 15.7389977,3.63223728 14.9357848,3.41783802 L14.1095633,0.116089357 C13.581409,0.047063253 13.0469796,0 12.5,0 C11.9530204,0 11.418591,0.047063253 10.8904367,0.116089357 L10.0642152,3.41783802 C9.26204819,3.63223728 8.50276104,3.948084 7.7999498,4.35387383 L4.88411981,2.60312082 C4.02861446,3.26200636 3.26409806,4.02756861 2.60521252,4.88202811 L4.35491968,7.79681225 C3.94703815,8.50066934 3.63223728,9.26100234 3.41679217,10.0642152 L0.115043507,10.8904367 C0.047063253,11.418591 0,11.9530204 0,12.5 C0,13.0480254 0.047063253,13.5824548 0.115043507,14.1095633 L3.41679217,14.9357848 C3.63223728,15.7389977 3.94703815,16.5003765 4.35491968,17.2021419 L2.60416667,20.1179719 C3.26305221,20.9724314 4.02861446,21.7369478 4.88307396,22.3958333 L7.7978581,20.6461262 C8.50171519,21.0529618 9.26100234,21.3688086 10.0642152,21.5832078 L10.8904367,24.8849565 C11.418591,24.9539826 11.9530204,25 12.5,25 C13.0469796,25 13.581409,24.9539826 14.1095633,24.8849565 L14.9357848,21.5832078 C15.7400435,21.3677627 16.4993307,21.0529618 17.2031878,20.6450803 L20.1190177,22.3947875 C20.9734772,21.7359019 21.7379936,20.9713855 22.3968792,20.116926 L20.6461262,17.2010961 C21.0529618,16.4982848 21.3677627,15.7389977 21.5832078,14.9357848 L24.8849565,14.1095633 Z" id="riker-semi-black-settings-web"></path>
        </g>
    </g>
</svg>